<?xml version="1.0" standalone="no"?>
<!DOCTYPE svg PUBLIC "-//W3C//DTD SVG 20010904//EN"
 "http://www.w3.org/TR/2001/REC-SVG-20010904/DTD/svg10.dtd">
<svg version="1.0" xmlns="http://www.w3.org/2000/svg"
 width="1065.000000pt" height="1280.000000pt" viewBox="0 0 1065.000000 1280.000000"
 preserveAspectRatio="xMidYMid meet">
<g transform="translate(0.000000,1280.000000) scale(0.100000,-0.100000)"
fill="#000000" stroke="none">
<path d="M3200 7644 c-1218 -1230 -2217 -2241 -2219 -2246 -4 -13 489 -508
506 -508 6 0 139 131 294 290 156 160 289 290 295 290 17 0 22 -147 34 -1095
10 -829 25 -1909 38 -2720 l7 -430 3356 -3 3356 -2 6 1207 c4 665 7 1589 7
2055 0 610 3 849 11 854 7 4 84 -66 184 -166 l174 -173 98 91 c54 50 170 163
258 251 l159 161 -109 112 c-418 428 -4221 4264 -4230 4266 -6 1 -1007 -1004
-2225 -2234z m3246 179 c560 -566 1231 -1242 1491 -1504 l474 -475 -6 -2050
c-4 -1127 -8 -2059 -11 -2072 l-4 -22 -2881 0 c-2295 0 -2880 3 -2884 13 -2 6
-8 368 -14 802 -15 1038 -29 2036 -41 2794 -9 593 -9 614 9 637 102 130 650
697 1645 1702 655 661 1193 1202 1197 1202 4 0 465 -462 1025 -1027z"/>
<path d="M4286 4759 c-60 -47 -56 49 -56 -1474 0 -1568 -6 -1446 74 -1485 43
-20 49 -20 1219 -18 l1176 3 28 21 c15 11 34 32 40 45 19 36 18 2834 -1 2867
-7 13 -26 32 -42 43 -28 18 -60 19 -1220 19 l-1191 0 -27 -21z m2232 -1476
l-3 -1238 -999 -3 c-730 -1 -1002 1 -1012 9 -12 10 -14 216 -14 1234 0 672 3
1225 7 1228 3 4 460 7 1015 7 l1008 0 -2 -1237z"/>
</g>
</svg>
